<?xml version="1.0" standalone="no"?>
<!DOCTYPE svg PUBLIC "-//W3C//DTD SVG 20010904//EN"
 "http://www.w3.org/TR/2001/REC-SVG-20010904/DTD/svg10.dtd">
<svg version="1.0" xmlns="http://www.w3.org/2000/svg"
 width="256.000000pt" height="256.000000pt" viewBox="0 0 256.000000 256.000000"
 preserveAspectRatio="xMidYMid meet">

<g transform="translate(0.000000,256.000000) scale(0.100000,-0.100000)"
fill="#000000" stroke="none">
<path d="M575 2386 c-37 -16 -70 -52 -84 -89 -15 -38 -15 -1021 -1 -1048 15
-27 64 -25 84 3 14 20 16 86 16 518 0 372 3 499 12 508 9 9 129 12 480 12
l468 0 0 -264 c0 -256 1 -264 23 -297 12 -19 42 -44 67 -56 42 -22 55 -23 297
-23 l253 0 0 -409 c0 -359 2 -412 16 -425 8 -9 24 -16 34 -16 10 0 26 7 34 16
14 14 16 70 16 467 l0 452 -333 333 -333 332 -509 0 c-403 -1 -516 -4 -540
-14z m1315 -401 l225 -225 -217 0 c-213 0 -217 0 -232 22 -13 19 -16 58 -16
225 0 112 3 203 8 203 4 0 108 -101 232 -225z"/>
<path d="M352 994 c-18 -9 -43 -31 -55 -48 -21 -29 -22 -43 -25 -220 -2 -104
-1 -200 3 -213 6 -27 44 -39 74 -23 19 10 21 20 21 105 l0 95 110 0 110 0 0
-89 c0 -95 11 -121 50 -121 46 0 50 20 50 222 0 211 -6 240 -64 281 -27 19
-46 22 -136 25 -82 2 -112 -1 -138 -14z m218 -104 c12 -12 20 -33 20 -55 l0
-35 -110 0 -110 0 0 35 c0 57 27 75 110 75 57 0 74 -4 90 -20z"/>
<path d="M929 987 c-19 -12 -45 -43 -57 -69 -31 -63 -24 -115 25 -169 41 -46
82 -59 179 -59 76 0 94 -9 94 -50 0 -45 -14 -50 -152 -50 -115 0 -130 -2 -148
-20 -24 -24 -25 -38 -4 -68 16 -23 19 -23 164 -20 162 3 177 8 224 72 29 39
29 133 0 172 -42 58 -68 69 -167 72 -100 4 -127 17 -127 58 0 43 33 54 167 54
129 0 153 8 153 50 0 43 -23 50 -174 50 -132 0 -146 -2 -177 -23z"/>
<path d="M1456 994 c-14 -13 -16 -50 -16 -248 0 -213 2 -234 18 -249 10 -10
28 -17 39 -17 40 0 48 26 53 173 l5 140 29 -42 c53 -77 84 -77 137 -3 l34 47
3 -140 c3 -150 11 -175 58 -175 49 0 54 26 54 265 0 238 -5 265 -53 265 -31 0
-36 -5 -102 -94 l-59 -78 -21 24 c-11 13 -41 52 -67 86 -51 66 -81 78 -112 46z"/>
<path d="M2212 574 c-21 -14 -22 -22 -22 -137 0 -95 -4 -128 -16 -145 l-15
-22 -715 0 c-701 0 -714 0 -734 -20 -25 -25 -25 -41 -3 -69 l18 -22 732 3
c724 3 732 3 760 24 15 11 38 36 51 54 20 30 22 44 22 176 0 136 -1 144 -22
158 -12 9 -25 16 -28 16 -3 0 -16 -7 -28 -16z"/>
</g>
</svg>
